<svg xmlns="http://www.w3.org/2000/svg" width="15.391" height="27.161" viewBox="0 0 15.391 27.161">
    <defs>
        <style>
            .cls-1{fill:#d9eaff}.cls-3{fill:#3580db}.cls-4{opacity:.2}.cls-5{opacity:.1}
        </style>
    </defs>
    <g id="deadline">
        <g id="Group_5" data-name="Group 5" transform="translate(1.496)">
            <path id="Path_2" d="M85.62 14.7V8h-12.4v6.7a6.237 6.237 0 0 0 3.5 5.618 1.36 1.36 0 0 1 .78 1.222v.081a1.36 1.36 0 0 1-.772 1.222 6.237 6.237 0 0 0-3.5 5.618v6.7h12.4v-6.7a6.237 6.237 0 0 0-3.5-5.618 1.36 1.36 0 0 1-.772-1.222v-.081a1.36 1.36 0 0 1 .772-1.222A6.237 6.237 0 0 0 85.62 14.7z" class="cls-1" data-name="Path 2" transform="translate(-73.222 -8)"/>
        </g>
        <g id="Group_6" data-name="Group 6" transform="translate(9.657 15.318)">
            <path id="Path_3" fill="#eef5ff" d="M148.661 148.833a.339.339 0 0 1-.339-.339 5.023 5.023 0 0 0-2.8-4.5.339.339 0 0 1 .3-.611 5.706 5.706 0 0 1 3.178 5.111.34.34 0 0 1-.339.339z" data-name="Path 3" transform="translate(-145.328 -143.35)"/>
        </g>
        <g id="Group_7" data-name="Group 7" transform="translate(1.496)">
            <path id="Path_4" d="M79.894 22.843a1.36 1.36 0 0 0 .772-1.222v-.081a1.36 1.36 0 0 0-.772-1.222 6.237 6.237 0 0 1-3.5-5.618V8h-3.172v6.7a6.237 6.237 0 0 0 3.5 5.618 1.36 1.36 0 0 1 .778 1.222v.081a1.36 1.36 0 0 1-.772 1.222 6.237 6.237 0 0 0-3.5 5.618v6.7h3.169v-6.7a6.237 6.237 0 0 1 3.497-5.618z" class="cls-1" data-name="Path 4" transform="translate(-73.222 -8)"/>
        </g>
        <g id="Group_8" data-name="Group 8" transform="translate(3.113 9.018)">
            <path id="Path_5" d="M87.509 87.683a5.114 5.114 0 0 0 4.565 2.838h.034a5.114 5.114 0 0 0 4.565-2.838z" class="cls-3" data-name="Path 5" transform="translate(-87.509 -87.683)"/>
        </g>
        <g id="Group_9" data-name="Group 9" transform="translate(2.565 19.401)">
            <path id="Path_6" d="M92.927 185.429v-.844a5.141 5.141 0 0 0-5.113-5.156h-.034a5.141 5.141 0 0 0-5.113 5.156v.844z" class="cls-3" data-name="Path 6" transform="translate(-82.666 -179.429)"/>
        </g>
        <g id="Group_10" data-name="Group 10" transform="translate(7.243 10.778)">
            <path id="Rectangle_23" d="M0 0H0.905V9.054H0z" class="cls-3" data-name="Rectangle 23"/>
        </g>
        <g id="Group_11" data-name="Group 11" transform="translate(2.565 20.394)">
            <path id="Path_7" d="M84.767 188.271v-.067a5.166 5.166 0 0 0-2.1 4.163v.844h2.1v-4.939z" class="cls-3" data-name="Path 7" transform="translate(-82.667 -188.204)"/>
        </g>
        <g id="Group_12" data-name="Group 12" transform="translate(7.243 11.764)">
            <path id="Path_8" d="M124 115.58a6.172 6.172 0 0 1 .905-.544v-2.546a6.163 6.163 0 0 1-.905-.544z" class="cls-3" data-name="Path 8" transform="translate(-124 -111.946)"/>
        </g>
        <g id="Group_13" data-name="Group 13" transform="translate(3.113 9.018)">
            <path id="Path_9" d="M91.755 90.511a6.243 6.243 0 0 1-2.255-2.828h-1.991a5.119 5.119 0 0 0 4.246 2.828z" class="cls-3" data-name="Path 9" transform="translate(-87.509 -87.683)"/>
        </g>
        <g id="Group_22" class="cls-4" data-name="Group 22" transform="translate(2.565 20.394)">
            <path id="Path_7-2" d="M84.767 188.271v-.067a5.166 5.166 0 0 0-2.1 4.163v.844h2.1v-4.939z" data-name="Path 7" transform="translate(-82.667 -188.204)"/>
        </g>
        <g id="Group_26" class="cls-5" data-name="Group 26" transform="translate(1.496)">
            <path id="Path_4-2" d="M79.894 22.843a1.36 1.36 0 0 0 .772-1.222v-.081a1.36 1.36 0 0 0-.772-1.222 6.237 6.237 0 0 1-3.5-5.618V8h-3.172v6.7a6.237 6.237 0 0 0 3.5 5.618 1.36 1.36 0 0 1 .778 1.222v.081a1.36 1.36 0 0 1-.772 1.222 6.237 6.237 0 0 0-3.5 5.618v6.7h3.169v-6.7a6.237 6.237 0 0 1 3.497-5.618z" data-name="Path 4" transform="translate(-73.222 -8)"/>
        </g>
        <g id="Group_14" data-name="Group 14" transform="translate(0 .018)">
            <path id="Path_10" d="M74.747 10.53h-14.1A.644.644 0 0 1 60 9.886V8.8a.644.644 0 0 1 .644-.644h14.1a.644.644 0 0 1 .644.644v1.086a.644.644 0 0 1-.641.644z" class="cls-3" data-name="Path 10" transform="translate(-60 -8.159)"/>
        </g>
        <g id="Group_15" data-name="Group 15" transform="translate(0 24.772)">
            <path id="Path_11" d="M60.644 226.889h14.1a.644.644 0 0 1 .644.644v1.083a.644.644 0 0 1-.644.644h-14.1a.644.644 0 0 1-.644-.644v-1.083a.644.644 0 0 1 .644-.644z" class="cls-3" data-name="Path 11" transform="translate(-60 -226.889)"/>
        </g>
        <g id="Group_16" data-name="Group 16" transform="translate(5.218 2.958)">
            <circle id="Ellipse_4" cx="1.019" cy="1.019" r="1.019" class="cls-1" data-name="Ellipse 4"/>
        </g>
        <g id="Group_17" data-name="Group 17" transform="translate(5.218 22.405)">
            <circle id="Ellipse_5" cx="1.019" cy="1.019" r="1.019" class="cls-3" data-name="Ellipse 5"/>
        </g>
        <g id="Group_18" data-name="Group 18" transform="translate(0 .018)">
            <path id="Path_12" d="M63.169 9.886V8.8a.644.644 0 0 1 .644-.644h-3.169A.644.644 0 0 0 60 8.8v1.086a.644.644 0 0 0 .644.644h3.169a.644.644 0 0 1-.644-.644z" class="cls-3" data-name="Path 12" transform="translate(-60 -8.159)"/>
        </g>
        <g id="Group_19" data-name="Group 19" transform="translate(0 24.772)">
            <path id="Path_13" d="M63.169 228.616v-1.083a.644.644 0 0 1 .644-.644h-3.169a.644.644 0 0 0-.644.644v1.083a.644.644 0 0 0 .644.644h3.169a.644.644 0 0 1-.644-.644z" class="cls-3" data-name="Path 13" transform="translate(-60 -226.889)"/>
        </g>
        <g id="Group_20" class="cls-4" data-name="Group 20" transform="translate(0 .018)">
            <path id="Path_12-2" d="M63.169 9.886V8.8a.644.644 0 0 1 .644-.644h-3.169A.644.644 0 0 0 60 8.8v1.086a.644.644 0 0 0 .644.644h3.169a.644.644 0 0 1-.644-.644z" data-name="Path 12" transform="translate(-60 -8.159)"/>
        </g>
        <g id="Group_21" class="cls-4" data-name="Group 21" transform="translate(0 24.772)">
            <path id="Path_13-2" d="M63.169 228.616v-1.083a.644.644 0 0 1 .644-.644h-3.169a.644.644 0 0 0-.644.644v1.083a.644.644 0 0 0 .644.644h3.169a.644.644 0 0 1-.644-.644z" data-name="Path 13" transform="translate(-60 -226.889)"/>
        </g>
        <g id="Group_23" class="cls-4" data-name="Group 23" transform="translate(7.243 11.763)">
            <path id="Path_8-2" d="M124 115.58a6.172 6.172 0 0 1 .905-.544v-2.546a6.163 6.163 0 0 1-.905-.544z" data-name="Path 8" transform="translate(-124 -111.946)"/>
        </g>
        <g id="Group_24" class="cls-4" data-name="Group 24" transform="translate(3.113 9.018)">
            <path id="Path_9-2" d="M91.755 90.511a6.243 6.243 0 0 1-2.255-2.828h-1.991a5.119 5.119 0 0 0 4.246 2.828z" data-name="Path 9" transform="translate(-87.509 -87.683)"/>
        </g>
        <g id="Group_25" class="cls-4" data-name="Group 25" transform="translate(5.218 22.405)">
            <circle id="Ellipse_5-2" cx="1.019" cy="1.019" r="1.019" data-name="Ellipse 5"/>
        </g>
        <g id="Group_27" class="cls-5" data-name="Group 27" transform="translate(5.218 2.958)">
            <circle id="Ellipse_4-2" cx="1.019" cy="1.019" r="1.019" data-name="Ellipse 4"/>
        </g>
    </g>
</svg>
