<svg xmlns="http://www.w3.org/2000/svg" width="192.578" height="37.646" viewBox="0 0 192.578 37.646">
    <path id="Path_59" fill="#fff" d="M-69.641-21.191l-5.549 3.051a9.41 9.41 0 0 0-3.092-2.271 9.288 9.288 0 0 0-3.581-.635 8.343 8.343 0 0 0-6.05 2.23 7.6 7.6 0 0 0-2.31 5.716A7.347 7.347 0 0 0-88-7.565a8.062 8.062 0 0 0 5.844 2.145 8.494 8.494 0 0 0 6.966-3.052l5.256 3.6Q-74.207.684-81.995.684q-7.007 0-10.974-4.15a13.613 13.613 0 0 1-3.967-9.717 13.658 13.658 0 0 1 1.929-7.1 13.611 13.611 0 0 1 5.383-5.1 16.067 16.067 0 0 1 7.724-1.863 15.668 15.668 0 0 1 7.1 1.575 13.483 13.483 0 0 1 5.159 4.48zm18.481-6.055a14.078 14.078 0 0 1 7.068 1.88 13.58 13.58 0 0 1 5.164 5.1 13.71 13.71 0 0 1 1.855 6.958 13.95 13.95 0 0 1-1.867 7.034 13.476 13.476 0 0 1-5.09 5.115 14.057 14.057 0 0 1-7.1 1.843 13.25 13.25 0 0 1-9.753-4.065 13.486 13.486 0 0 1-4.041-9.875 13.44 13.44 0 0 1 4.565-10.376 13.337 13.337 0 0 1 9.199-3.614zm.11 6.274a6.86 6.86 0 0 0-5.172 2.161 7.674 7.674 0 0 0-2.066 5.53 7.815 7.815 0 0 0 2.042 5.615 6.83 6.83 0 0 0 5.172 2.148 6.909 6.909 0 0 0 5.209-2.172 7.756 7.756 0 0 0 2.079-5.591 7.706 7.706 0 0 0-2.042-5.554 6.907 6.907 0 0 0-5.222-2.137zm19.4-5.591h6.738v12.793a17.713 17.713 0 0 0 .512 5.188 4.528 4.528 0 0 0 1.652 2.258 4.726 4.726 0 0 0 2.8.806 4.895 4.895 0 0 0 2.827-.793 4.655 4.655 0 0 0 1.725-2.332 17.878 17.878 0 0 0 .416-4.907v-13.012h6.665v11.255q0 6.958-1.1 9.521a10.386 10.386 0 0 1-3.955 4.8 12.106 12.106 0 0 1-6.637 1.67 11.779 11.779 0 0 1-7.068-1.954 10.319 10.319 0 0 1-3.8-5.444q-.781-2.417-.781-8.789zm28.467 0h5.71v3.345a7.137 7.137 0 0 1 2.466-3 5.949 5.949 0 0 1 3.369-1.025 6.234 6.234 0 0 1 2.71.684L9-20.825a4.583 4.583 0 0 0-1.929-.586 3.052 3.052 0 0 0-2.6 1.9q-1.062 1.9-1.062 7.471l.024 1.294V0h-6.619zm33.813 3.711l-4.13 4.126q-2.515-2.49-4.565-2.49a2.873 2.873 0 0 0-1.758.476 1.431 1.431 0 0 0-.635 1.184 1.455 1.455 0 0 0 .4.989 7.517 7.517 0 0 0 1.99 1.233l2.441 1.221a14.387 14.387 0 0 1 5.3 3.882 7.667 7.667 0 0 1 1.44 4.639 7.662 7.662 0 0 1-2.6 5.908A9.954 9.954 0 0 1 21.545.684a11.08 11.08 0 0 1-9.277-4.541l4.1-4.468a9.475 9.475 0 0 0 2.747 2.209 6.081 6.081 0 0 0 2.8.842 3.334 3.334 0 0 0 2.124-.635 1.84 1.84 0 0 0 .806-1.465q0-1.538-2.905-3L19.69-11.5q-6.445-3.247-6.445-8.13a7.054 7.054 0 0 1 2.429-5.383 8.821 8.821 0 0 1 6.213-2.234 10.791 10.791 0 0 1 4.871 1.135 10.775 10.775 0 0 1 3.869 3.26zm25.342-3.711h6.665V0h-6.668v-2.808a13.066 13.066 0 0 1-3.914 2.674A10.954 10.954 0 0 1 47.8.684a11.821 11.821 0 0 1-8.9-3.992 13.925 13.925 0 0 1-3.755-9.924 14.269 14.269 0 0 1 3.633-10.083 11.576 11.576 0 0 1 8.828-3.931 11.219 11.219 0 0 1 4.487.9 12.244 12.244 0 0 1 3.877 2.71zm-7.006 5.469a6.734 6.734 0 0 0-5.134 2.185 7.875 7.875 0 0 0-2.044 5.6 7.957 7.957 0 0 0 2.08 5.664 6.741 6.741 0 0 0 5.119 2.225 6.866 6.866 0 0 0 5.207-2.18 7.987 7.987 0 0 0 2.068-5.725 7.758 7.758 0 0 0-2.068-5.615 6.952 6.952 0 0 0-5.231-2.154zM89-26.562h6.641v22.753q0 6.738-2.71 9.912-3.638 4.3-10.962 4.3a19.2 19.2 0 0 1-6.569-.979 11.807 11.807 0 0 1-4.492-2.869 11.693 11.693 0 0 1-2.71-4.6h7.349a6.072 6.072 0 0 0 2.515 1.7 10.406 10.406 0 0 0 3.638.574 9.59 9.59 0 0 0 4.321-.83 5.009 5.009 0 0 0 2.309-2.154A10.88 10.88 0 0 0 89-3.3a11.04 11.04 0 0 1-3.685 2.531 11.719 11.719 0 0 1-4.37.769 12.012 12.012 0 0 1-9.033-3.857 13.566 13.566 0 0 1-3.687-9.766 13.587 13.587 0 0 1 3.906-10.156 11.653 11.653 0 0 1 8.447-3.467 11.235 11.235 0 0 1 4.333.842A13.728 13.728 0 0 1 89-23.633zm-6.909 5.542a6.94 6.94 0 0 0-5.2 2.112 7.315 7.315 0 0 0-2.051 5.31 7.417 7.417 0 0 0 2.1 5.444 7.109 7.109 0 0 0 5.274 2.124 6.823 6.823 0 0 0 5.115-2.075 7.486 7.486 0 0 0 2.014-5.444 7.4 7.4 0 0 0-2.026-5.4 6.982 6.982 0 0 0-5.225-2.072z" data-name="Path 59" transform="translate(96.936 27.246)"/>
</svg>
